<?xml version="1.0" encoding="iso-8859-1"?>
<!-- Uploaded to: SVG Repo, www.svgrepo.com, Generator: SVG Repo Mixer Tools -->
<svg version="1.1" id="Layer_1" xmlns="http://www.w3.org/2000/svg" xmlns:xlink="http://www.w3.org/1999/xlink" 
	 viewBox="0 0 497.6 497.6" xml:space="preserve">
<g>
	<path style="fill:#F7910B;" d="M491.2,309.6c0,104-95.2,188-242.4,188s-242.4-84-242.4-188s95.2-260,242.4-260
		S491.2,206.4,491.2,309.6z"/>
	<path style="fill:#F7910B;" d="M491.2,309.6c0,104-95.2,156-242.4,156s-242.4-52-242.4-156s95.2-276,242.4-276
		S491.2,206.4,491.2,309.6z"/>
</g>
<g>
	<path style="fill:#F9A908;" d="M248.8,33.6c147.2,0,242.4,172,242.4,276s-95.2,156-242.4,156"/>
	<path style="fill:#F9A908;" d="M491.2,309.6c0,104-95.2,156-242.4,156s-242.4-52-242.4-156s95.2-260,242.4-260
		S491.2,206.4,491.2,309.6z"/>
</g>
<path style="fill:#F9C55D;" d="M6.4,309.6c0-104,95.2-260,242.4-260"/>
<path style="fill:#F7910B;" d="M248.8,49.6c147.2,0,242.4,156,242.4,260s-95.2,188-242.4,188"/>
<g>
	<path style="fill:#EA7103;" d="M248.8,49.6c147.2,0,242.4,156,242.4,260"/>
	<ellipse style="fill:#EA7103;" cx="165.6" cy="223.2" rx="25.6" ry="16"/>
	<ellipse style="fill:#EA7103;" cx="332" cy="223.2" rx="25.6" ry="16"/>
</g>
<ellipse style="fill:#1E4784;" cx="165.6" cy="218.4" rx="25.6" ry="16"/>
<path style="fill:#00233F;" d="M165.6,202.4c14.4,0,25.6,7.2,25.6,16s-11.2,16-25.6,16"/>
<ellipse style="fill:#1E4784;" cx="332" cy="218.4" rx="25.6" ry="16"/>
<path style="fill:#00233F;" d="M332,202.4c14.4,0,25.6,7.2,25.6,16s-11.2,16-25.6,16"/>
<g>
	<path style="fill:#19BCA4;" d="M194.4,158.4c-2.4,6.4-12-1.6-25.6-7.2c-13.6-5.6-25.6-7.2-22.4-13.6c2.4-6.4,16-7.2,28.8-1.6
		C188.8,142.4,196.8,152,194.4,158.4z"/>
	<path style="fill:#19BCA4;" d="M302.4,129.6c3.2,6.4,12-2.4,24.8-9.6c12.8-7.2,24.8-9.6,21.6-15.2c-3.2-6.4-16-5.6-28.8,1.6
		C306.4,112.8,299.2,123.2,302.4,129.6z"/>
</g>
<g>
	<path style="fill:#109DA0;" d="M194.4,158.4c-2.4,6.4-12-1.6-25.6-7.2c-13.6-5.6-25.6-7.2-22.4-13.6"/>
	<path style="fill:#109DA0;" d="M302.4,129.6c3.2,6.4,12-2.4,24.8-9.6c12.8-7.2,24.8-9.6,21.6-15.2"/>
</g>
<path style="fill:#F9C55D;" d="M215.2,256.8c0,9.6-28,5.6-62.4,5.6s-62.4,4.8-62.4-5.6c0-9.6,28-17.6,62.4-17.6
	C187.2,238.4,215.2,246.4,215.2,256.8z"/>
<path style="fill:#F9A908;" d="M407.2,256.8c0,9.6-28,5.6-62.4,5.6s-62.4,4.8-62.4-5.6c0-9.6,28-17.6,62.4-17.6
	S407.2,246.4,407.2,256.8z"/>
<g>
	<circle style="fill:#F7910B;" cx="75.2" cy="285.6" r="4.8"/>
	<circle style="fill:#F7910B;" cx="39.2" cy="301.6" r="8.8"/>
	<circle style="fill:#F7910B;" cx="63.2" cy="269.6" r="1.6"/>
	<circle style="fill:#F7910B;" cx="100" cy="284" r="1.6"/>
</g>
<g>
	<circle style="fill:#F9A908;" cx="413.6" cy="288.8" r="6.4"/>
	<circle style="fill:#F9A908;" cx="433.6" cy="300" r="1.6"/>
	<circle style="fill:#F9A908;" cx="391.2" cy="228.8" r="2.4"/>
	<circle style="fill:#F9A908;" cx="387.2" cy="322.4" r="10.4"/>
	<circle style="fill:#F9A908;" cx="444.8" cy="322.4" r="4.8"/>
</g>
<g>
	<circle style="fill:#F7910B;" cx="67.2" cy="317.6" r="4"/>
	<circle style="fill:#F7910B;" cx="73.6" cy="250.4" r="3.2"/>
</g>
<g>
	<circle style="fill:#F9A908;" cx="31.2" cy="140.8" r="8.8"/>
	<circle style="fill:#F9A908;" cx="56.8" cy="112" r="4.8"/>
	<circle style="fill:#F9A908;" cx="466.4" cy="160" r="1.6"/>
	<circle style="fill:#F9A908;" cx="460" cy="136" r="6.4"/>
	<circle style="fill:#F9A908;" cx="480.8" cy="140.8" r="4"/>
	<circle style="fill:#F9A908;" cx="40.8" cy="164" r="4.8"/>
</g>
<path style="fill:#F7910B;" d="M308,295.2c0,20.8-26.4,37.6-59.2,37.6s-59.2-16.8-59.2-37.6"/>
<path style="fill:#02243E;" d="M288.8,296.8h-80c-4.8,0-8-3.2-8-8s3.2-8,8-8h80c4.8,0,8,3.2,8,8S293.6,296.8,288.8,296.8z"/>
<polygon style="fill:#3870B2;" points="276,162.4 248.8,189.6 221.6,162.4 248.8,96.8 "/>
<polyline style="fill:#1E4784;" points="248.8,96.8 276,162.4 248.8,189.6 "/>
<polygon style="fill:#3870B2;" points="267.2,88 248.8,107.2 230.4,88 248.8,42.4 "/>
<polyline style="fill:#1E4784;" points="248.8,42.4 267.2,88 248.8,107.2 "/>
<polygon style="fill:#3870B2;" points="260,26.4 248.8,37.6 237.6,26.4 248.8,0 "/>
<polyline style="fill:#1E4784;" points="248.8,0 260,26.4 248.8,37.6 "/>
<path style="fill:#75B1C9;" d="M6.4,312.8c0,103.2,96.8,184.8,242.4,184.8s240-80.8,242.4-184.8H6.4z"/>
<path style="fill:#638FA5;" d="M248.8,497.6c145.6,0,242.4-80,242.4-184.8H8.8"/>
<path style="fill:#F7910B;" d="M309.6,312.8c0,24.8-27.2,45.6-60.8,45.6s-60.8-20-60.8-45.6"/>
<g>
	
		<rect x="236.715" y="379.2" transform="matrix(-0.7069 0.7073 -0.7073 -0.7069 701.2313 491.8246)" style="fill:#75B1C9;" width="24" height="24"/>
	
		<rect x="236.526" y="425.68" transform="matrix(-0.7069 0.7073 -0.7073 -0.7069 733.7839 571.2957)" style="fill:#75B1C9;" width="24" height="24"/>
</g>
<g>
	<path style="fill:#02243E;" d="M388.8,431.2c-27.2,0-48.8-21.6-48.8-48.8c0-27.2,21.6-48.8,48.8-48.8c27.2,0,48.8,21.6,48.8,48.8
		S415.2,431.2,388.8,431.2z M388.8,341.6c-22.4,0-40.8,18.4-40.8,40.8s18.4,40.8,40.8,40.8s40.8-18.4,40.8-40.8
		C429.6,360,411.2,341.6,388.8,341.6z"/>
	<path style="fill:#02243E;" d="M344,448.8c-0.8,0-0.8,0-1.6,0c-2.4-0.8-3.2-3.2-2.4-5.6l51.2-120c0.8-1.6,2.4-2.4,4-2.4
		s3.2,1.6,3.2,3.2l18.4,106.4c0,2.4-0.8,4-3.2,4.8c-2.4,0-4-0.8-4.8-3.2l-16-93.6l-45.6,107.2C347.2,448,345.6,448.8,344,448.8z"/>
	<path style="fill:#02243E;" d="M324.8,389.6c-2.4,0-4-1.6-4-3.2c0-2.4,1.6-4,3.2-4.8l137.6-16c2.4,0,4,1.6,4.8,3.2s-1.6,4-3.2,4.8
		L324.8,389.6L324.8,389.6z"/>
</g>
</svg>